<?xml version="1.0" encoding="utf-8"?>
<!-- Generator: Adobe Illustrator 24.2.3, SVG Export Plug-In . SVG Version: 6.00 Build 0)  -->
<svg version="1.1" id="Слой_1" xmlns="http://www.w3.org/2000/svg" xmlns:xlink="http://www.w3.org/1999/xlink" x="0px" y="0px"
	 viewBox="0 0 24 24" style="enable-background:new 0 0 24 24;" xml:space="preserve">
<style type="text/css">
	.st0{fill:#E6007E;}
	.st1{fill:#5AB5E2;}
	.st2{fill:#3F3A34;}
	.st3{fill:#BE1622;}
	.st4{fill:#3AAA35;}
	.st5{fill:#312783;}
	.st6{fill:#F8AF43;}
</style>
<g>
	<path class="st0" d="M9.27,19.3c0.33-0.41,1.07-0.06,2.28,0.02c1.9,0.12,2.95-0.56,3.33-0.02c0.15,0.21,0.15,0.56,0.06,0.81
		c-0.02,0.06-0.14,0.32-0.54,0.54c-0.52,0.28-0.87,0.12-2.11,0.09c-0.85-0.02-1.28-0.03-1.57,0c-0.42,0.04-0.73,0.09-1.07-0.09
		c-0.09-0.05-0.37-0.21-0.48-0.54C9.06,19.84,9.11,19.49,9.27,19.3z"/>
	<g>
		<g>
			<path class="st1" d="M3.81,10.66c0.08-1.75-0.39,0.87-0.41,1.25c-0.04,0.86,0.25,1.61,0.69,2.32c-0.1-0.77-0.2-1.54-0.3-2.31
				c-0.69,2.2-1.15,5.61,1.77,6.84c1.39,0.58,3.17-0.03,4.39-0.8c0.63-0.39,1.19-0.93,1.61-1.55c0.25-0.43,0.46-0.87,0.63-1.34
				c0.35-1.16,0.01-1.14-1,0.07c-0.86-0.5-1.73-0.99-2.59-1.49c-0.23-1.54-0.38-1.7-0.44-0.48c-0.03,0.53,0.11,0.49,0.41-0.12
				c-3.21,0.95-2.64,5.9,0.8,5.89c2.06,0,3.55-0.19,5.46-1c-0.77,0.1-1.54,0.2-2.31,0.3c0.11,0.02,0.22,0.04,0.33,0.06
				c-0.6-0.46-1.2-0.92-1.79-1.38c-0.26-0.49,0.6,1.03,0.69,1.12c0.38,0.39,0.91,0.65,1.42,0.84c0.68,0.25,1.22,0.29,1.95,0.15
				c0.19-0.05,0.37-0.1,0.56-0.15c0.87-0.37,0.95-0.41,0.25-0.09c-0.71-0.29-1.41-0.59-2.12-0.88c1,0.8,1.8,1.01,2.94,1.21
				c1.32,0.23,2.68-0.15,3.39-1.38c0.83-1.44,0.32-2.53,0.35-4.08c0.03-1.29,0.52-2.35,0.17-3.66c-0.71-2.68-4.04-2.72-5.48-0.72
				c-0.61,0.68-0.26,0.68,1.06-0.02c-3.69-1.17-5.27,4.62-1.6,5.79c2.77,0.88,4.26-0.71,5.72-2.74c-1.83-0.24-3.66-0.48-5.48-0.72
				c-0.15-0.55,0.16-1.46-0.09-0.34c-0.13,0.58-0.19,1.19-0.24,1.78c-0.04,0.4-0.07,0.79-0.05,1.19c0.02,0.64-0.16,1.57,0.47,0.48
				c1.13-0.46,2.26-0.92,3.39-1.38c-0.67-0.12-1.34-0.15-2.01-0.22c0.71,0.29,1.41,0.59,2.12,0.88c-1.73-1.39-2.9-1.3-4.93-0.74
				c0.77,0.1,1.54,0.2,2.31,0.3c-0.15-0.07-0.3-0.14-0.45-0.22c0.46,0.6,0.92,1.2,1.38,1.79c-0.46-1.34-1.18-2.37-2.64-2.66
				c-1.01-0.2-1.38,0.05-2.31,0.3c-0.83,0.22-1.56,0.18-2.43,0.18c0.27,1.96,0.53,3.93,0.8,5.89c3.51-1.04,4.99-5,3.62-8.22
				c-0.42-0.99-1.62-1.41-2.59-1.49c-1.27-0.1-2.69,0.51-3.57,1.39c-0.54,0.55-0.84,1.12-1.04,1.85c-0.11,0.37-0.18,0.76-0.2,1.15
				c0.12-0.5-0.04-0.64-0.48-0.42c0.97,0.26,1.95,0.51,2.92,0.77c-0.12-0.11-0.25-0.21-0.37-0.32c0.29,0.71,0.59,1.41,0.88,2.12
				c-0.01-0.09,0.16-2.4-0.01-2.38c-0.32,1.49-0.28,1.68,0.12,0.55c0.1-0.24,0.15-0.5,0.17-0.76c0.09-0.4,0.07-0.8-0.05-1.2
				C9.15,10.63,9.02,11,9.18,13.02c0.57-0.29,0.61-1.82,0.63-2.35C9.99,6.8,3.99,6.81,3.81,10.66L3.81,10.66z"/>
		</g>
	</g>
	<g>
		<g>
			<path class="st2" d="M21.25,22.39H2.78c-0.98,0-1.78-0.76-1.78-1.69v-1.69h7.1v0.68H1.72v1.01c0,0.56,0.48,1.01,1.07,1.01h18.46
				c0.59,0,1.07-0.46,1.07-1.01v-1.01h-6.39v-0.68h7.1v1.69C23.02,21.63,22.23,22.39,21.25,22.39z"/>
		</g>
		<g>
			<path class="st2" d="M14.15,21.04H9.89c-0.59,0-1.07-0.46-1.07-1.01v-1.01h6.39v1.01C15.21,20.58,14.73,21.04,14.15,21.04z
				 M9.53,19.69v0.34c0,0.19,0.16,0.34,0.36,0.34h4.26c0.2,0,0.36-0.15,0.36-0.34v-0.34H9.53z"/>
		</g>
		<g>
			<path class="st2" d="M2.43,18.33H1.72V7.51c0-0.93,0.8-1.69,1.78-1.69h2.49v0.68H3.49c-0.59,0-1.07,0.46-1.07,1.01V18.33z"/>
		</g>
		<g>
			<path class="st2" d="M22.31,18.33H21.6V7.51c0-0.56-0.48-1.01-1.07-1.01h-2.49V5.81h2.49c0.98,0,1.78,0.76,1.78,1.69V18.33z"/>
		</g>
		<g>
			<path class="st2" d="M3.85,18.33H3.14V7.84c0-0.37,0.32-0.68,0.71-0.68h2.84v0.68H3.85V18.33z"/>
		</g>
		<g>
			<path class="st2" d="M20.89,18.33h-0.71V7.84h-2.84V7.17h2.84c0.39,0,0.71,0.3,0.71,0.68V18.33z"/>
		</g>
		<g>
			<rect x="13.08" y="11.57" class="st2" width="0.71" height="4.74"/>
		</g>
		<g>
			<rect x="10.24" y="11.57" class="st2" width="0.71" height="4.74"/>
		</g>
		<g>
			<path class="st2" d="M17.34,14.27h-1.42c-0.59,0-1.07-0.46-1.07-1.01v-2.03h0.71v2.03c0,0.19,0.16,0.34,0.36,0.34h1.42V14.27z"/>
		</g>
		<g>
			<path class="st2" d="M8.11,14.27H6.69V13.6h1.42c0.2,0,0.36-0.15,0.36-0.34v-2.03h0.71v2.03C9.18,13.82,8.7,14.27,8.11,14.27z"/>
		</g>
		<g>
			<rect x="13.08" y="16.98" class="st2" width="0.71" height="0.68"/>
		</g>
		<g>
			<rect x="10.24" y="16.98" class="st2" width="0.71" height="0.68"/>
		</g>
		<g>
			<rect x="18.05" y="13.6" class="st2" width="0.71" height="0.68"/>
		</g>
		<g>
			<rect x="5.27" y="13.6" class="st2" width="0.71" height="0.68"/>
		</g>
		<g>
			<rect x="2.43" y="20.36" class="st3" width="0.71" height="0.68"/>
		</g>
		<g>
			<rect x="3.85" y="20.36" class="st4" width="0.71" height="0.68"/>
		</g>
		<g>
			<rect x="5.27" y="20.36" class="st5" width="0.71" height="0.68"/>
		</g>
	</g>
	<g>
		<path class="st6" d="M7.86,7.17C7.74,6.48,6.98,6.41,6.97,5.91C6.96,5.43,7.68,5.38,7.9,4.65c0.19-0.63-0.23-0.98,0.04-1.33
			c0.26-0.34,0.7-0.06,1.3-0.41c0.66-0.38,0.54-0.94,1-1.07c0.66-0.18,1.09,0.9,1.93,0.81c0.7-0.08,0.84-0.88,1.41-0.81
			c0.51,0.06,0.5,0.72,1.3,1.07c0.53,0.23,0.8,0.06,1.04,0.33c0.29,0.33-0.02,0.67,0.22,1.26c0.24,0.59,0.66,0.52,0.78,1
			c0.1,0.43-0.24,0.5-0.44,1.48c-0.12,0.57-0.06,0.8-0.3,1.07c-0.24,0.28-0.43,0.18-0.63,0.44c-0.3,0.4,0.02,0.78-0.22,1.3
			c-0.23,0.48-0.76,0.67-0.96,0.74c-0.47,0.16-1.22,0.22-1.67-0.19c-0.3-0.27-0.27-0.58-0.52-0.63c-0.24-0.05-0.36,0.22-0.85,0.52
			c-0.27,0.16-0.75,0.46-1.33,0.41c-0.46-0.04-0.79-0.3-0.93-0.41c-0.21-0.17-0.53-0.42-0.59-0.81C8.36,8.86,8.88,8.47,8.71,8.25
			C8.56,8.04,8.08,8.33,7.86,8.1C7.68,7.9,7.94,7.62,7.86,7.17z"/>
		<path class="st2" d="M16.57,4.58c0.15-0.88-0.36-1.87-1.52-1.98c-0.23-0.57-0.77-1.02-1.61-1.02c-0.58,0-1.1,0.27-1.42,0.68
			c-0.32-0.41-0.84-0.68-1.42-0.68c-0.85,0-1.38,0.45-1.61,1.02c-1.16,0.1-1.67,1.1-1.52,1.98C6.47,5.2,6.44,6.72,7.44,7.35
			C7.28,7.96,7.6,8.59,8.16,8.86c-0.08,1.06,0.62,2.18,2.08,2.19c0.74,0,1.39-0.36,1.78-0.91c0.38,0.55,1.03,0.91,1.78,0.91
			c1.46-0.01,2.16-1.13,2.08-2.19c0.56-0.28,0.88-0.91,0.72-1.51C17.6,6.72,17.56,5.2,16.57,4.58z M10.24,10.38
			c-1.86-0.01-1.86-2.7,0-2.71V6.99C9.25,7,8.62,7.51,8.33,8.17C8.02,7.89,8.1,7.39,8.36,7.05c-0.88-0.2-1.29-1.21-0.64-1.79
			C8,5.67,8.48,5.97,9.18,5.98V5.3C7.91,5.32,7.8,3.59,8.86,3.31c0.02,0.83,0.6,1.65,1.74,1.65V4.29c-0.59,0-1.07-0.46-1.07-1.01
			c-0.02-1.32,2.15-1.31,2.13,0v5.75C11.66,9.77,11.02,10.38,10.24,10.38z M15.67,7.05c0.27,0.34,0.35,0.84,0.03,1.12
			C15.41,7.51,14.78,7,13.79,6.99v0.68c1.86,0.01,1.86,2.7,0,2.71c-0.78,0-1.42-0.61-1.42-1.35V3.27c0-0.56,0.48-1.01,1.07-1.01
			c1.38-0.02,1.38,2.05,0,2.03v0.68c1.14-0.01,1.72-0.82,1.74-1.65c1.05,0.28,0.95,2.01-0.32,1.99v0.68c0.69,0,1.18-0.31,1.45-0.73
			C16.96,5.83,16.54,6.85,15.67,7.05z"/>
	</g>
</g>
</svg>
